<svg width="263" height="254" viewBox="0 0 263 254" fill="none" xmlns="http://www.w3.org/2000/svg">
<rect width="262.587" height="253.998" fill="white"/>
<path d="M149.56 133.195L150.825 140.331L93.2916 148.853L69.1976 219.563L59.4178 216.722L81.831 150.581L58.5866 153.987L57.1737 146.979L84.4537 142.846L97.3735 104.727L84.0197 106.473L82.9115 99.7731L157.428 88.4102L158.841 95.4778L108.696 103.093L95.7296 141.135L149.56 133.195Z" fill="#FF0000"/>
<path d="M0 0V253.998H262.587V0H0ZM253.149 245.227H9.17031V8.79603H253.149V245.227Z" fill="#FF0000"/>
<path d="M215.008 84.3653L122.659 34.1562L27.7696 101.427L28.0097 103.087L121.56 60.0223L214.048 92.3228L232.121 70.7436L215.008 84.3653ZM200.353 84.5451L121.708 52.7579L61.9667 82.7824L58.7344 83.4413L60.8123 80.7631L122.927 45.3309L202.347 82.3888L204.093 84.7676L200.353 84.5451Z" fill="#FF0000"/>
<path d="M196.963 144.842L193.87 152.38L182.132 158.712L186.962 158.532L171.697 164.41L176.785 164.248L155.286 176.321L159.904 175.885C156.22 179.436 152.303 182.774 148.175 185.878L152.793 186.058L147.446 189.335L137.814 193.34L143.198 194.067L126.196 197.601L130.813 198.2L118.762 203.633L122.003 204.617L114.107 209.255L109.084 214.388H130.324L129.641 217.554L144.795 210.915L145.238 213.944L160.301 202.504L158.408 207.689L170.847 200.048L170.995 203.376L175.557 193.288L176.12 196.711L183.379 184.518L185.937 182.054L185.558 187.111L189.391 179.033L191.783 168.406L192.965 175.944L193.981 158.755L195.671 162.87L194.747 153.655L196.963 144.842ZM122.4 210.598C163.247 193.613 188.56 163.076 189.345 162.126C166.913 203.393 122.493 210.598 122.373 210.598H122.4Z" fill="#FF0000"/>
</svg>
